<?xml version="1.0" encoding="UTF-8" standalone="no"?>
<!-- Created with Inkscape (http://www.inkscape.org/) -->

<svg
   xmlns:dc="http://purl.org/dc/elements/1.1/"
   xmlns:cc="http://creativecommons.org/ns#"
   xmlns:rdf="http://www.w3.org/1999/02/22-rdf-syntax-ns#"
   xmlns:svg="http://www.w3.org/2000/svg"
   xmlns="http://www.w3.org/2000/svg"
   xmlns:sodipodi="http://sodipodi.sourceforge.net/DTD/sodipodi-0.dtd"
   xmlns:inkscape="http://www.inkscape.org/namespaces/inkscape"
   width="512"
   height="512"
   viewBox="0 0 135.46666 135.46667"
   version="1.1"
   id="svg8"
   inkscape:version="0.92.2 5c3e80d, 2017-08-06"
   sodipodi:docname="hriiH.svg">
  <defs
     id="defs2" />
  <sodipodi:namedview
     id="base"
     pagecolor="#ffffff"
     bordercolor="#666666"
     borderopacity="1.0"
     inkscape:pageopacity="0.0"
     inkscape:pageshadow="2"
     inkscape:zoom="1"
     inkscape:cx="220.71169"
     inkscape:cy="247.82844"
     inkscape:document-units="mm"
     inkscape:current-layer="layer2"
     showgrid="false"
     units="px"
     inkscape:window-width="1920"
     inkscape:window-height="1035"
     inkscape:window-x="1995"
     inkscape:window-y="0"
     inkscape:window-maximized="0"
     objecttolerance="1"
     gridtolerance="1"
     guidetolerance="1" />
  <metadata
     id="metadata5">
    <rdf:RDF>
      <cc:Work
         rdf:about="">
        <dc:format>image/svg+xml</dc:format>
        <dc:type
           rdf:resource="http://purl.org/dc/dcmitype/StillImage" />
        <dc:title></dc:title>
      </cc:Work>
    </rdf:RDF>
  </metadata>
  <g
     inkscape:groupmode="layer"
     id="layer2"
     inkscape:label="Layer 2"
     style="display:inline;opacity:1" />
  <g
     id="g4396"
     transform="matrix(1.1899876,0,0,1.1541571,-6.1225271,-7.2159278)">
    <path
       sodipodi:nodetypes="cccccczsccccsccsccccccccccsccccscccccccscscccccc"
       inkscape:connector-curvature="0"
       id="path4387"
       d="m 28.811654,33.783976 c 2.806332,1.216075 4.022408,-0.18709 4.022408,-0.18709 3.46114,-5.144938 15.528358,-4.864306 15.528358,-4.864306 6.45456,1.964431 8.231901,-1.216075 8.231901,-1.216075 l 1.403165,-2.057976 C 56.009234,22.736964 44.735984,17.788426 47.614067,12.736504 48.923687,9.4624528 60.526267,6.8113818 67.819642,9.8366301 75.113017,12.861878 93.346067,22.903823 93.357246,31.164734 l 0.09354,69.129266 -10e-7,4.30304 c 1.403164,6.92228 24.227985,11.88012 24.227985,11.88012 l -2.33861,2.71279 c 0,0 0.28064,0 0,0 -0.28063,0 -22.731273,-6.36101 -22.731273,-6.36101 v 0.0935 c -9.822155,-3.55468 -13.001619,-7.71768 -13.002662,-9.82215 -0.01039,-20.955303 0.09354,-71.56142 0.09354,-71.56142 v 0.09355 C 78.483695,18.442703 71.65496,14.981563 71.65496,14.981563 c -3.40828,0.107356 -6.133991,2.979223 -9.728612,6.548104 -1.023112,2.093873 1.870887,3.46114 1.870887,3.46114 l 8.886711,6.735192 0.654812,1.964431 C 61.785066,44.013203 46.64641,59.070999 43.311026,61.473097 c -3.315965,3.036763 -8.80283,7.447637 -8.60608,11.693041 0.09355,3.648231 3.83532,4.022406 3.83532,4.022406 1.117961,-2.95651 9.501507,-14.663671 15.154178,-16.557345 9.58832,-3.212137 15.902537,4.770761 17.212157,8.512535 1.847369,8.119974 1.002232,21.291358 1.403164,36.762876 0.374177,7.5771 27.969765,13.93811 27.969765,13.93811 l -1.309629,2.99342 c 0,0 -29.09233,-8.51835 -32.272795,-9.44797 -6.511936,-1.90338 -9.857307,-7.03378 -9.822156,-11.69305 l 0.280633,-24.976337 c -0.313358,-0.670572 -1.155007,-2.215777 -2.432149,-0.841895 -5.12382,5.330362 -7.33148,19.017067 -5.144936,30.214822 l -1.496711,0.46772 -25.91178,-8.138357 C 12.80943,94.728454 4.1707996,83.057633 8.6060785,74.101581 c 0,0 2.4938745,0.752163 3.9288615,1.590255 4.313208,2.519094 8.044814,5.519115 8.044814,5.519115 -0.187089,3.367596 -1.865477,5.099536 -0.280634,9.9157 1.441692,4.38114 11.321245,7.496753 12.722034,6.92228 -0.300702,-3.232645 2.220803,-16.015605 2.15152,-16.089625 C 28.071864,77.713355 18.729326,71.673663 23.386083,61.566641 25.068412,58.841881 30.583544,52.465124 35.640391,50.62195 36.669379,48.096256 34.424315,46.693089 34.424315,46.693089 25.129241,42.050202 22.894349,31.647905 28.811654,33.783976 Z"
       style="fill:#000000;fill-opacity:1;stroke:#000000;stroke-width:0.26458332px;stroke-linecap:butt;stroke-linejoin:miter;stroke-opacity:1" />
    <path
       sodipodi:nodetypes="ccccc"
       inkscape:connector-curvature="0"
       id="path4389"
       d="m 98.424999,40.745833 c 3.016241,-3.258274 8.812201,-8.573175 9.789581,-8.466667 7.24979,6.451549 7.64791,6.511642 9.92188,8.995833 -8.40953,7.552171 -8.4913,8.951814 -9.65729,8.73125 C 104.775,48.154166 98.424999,40.745833 98.424999,40.745833 Z"
       style="fill:#000000;fill-opacity:1;stroke:#000000;stroke-width:0.26458332px;stroke-linecap:butt;stroke-linejoin:miter;stroke-opacity:1" />
    <path
       style="fill:#000000;fill-opacity:1;stroke:#000000;stroke-width:0.26458332px;stroke-linecap:butt;stroke-linejoin:miter;stroke-opacity:1"
       d="m 98.557291,74.083333 c 3.016239,-3.258274 8.812199,-8.573175 9.789579,-8.466667 7.24979,6.451549 7.64791,6.511642 9.92188,8.995833 -8.40953,7.552171 -8.4913,8.951814 -9.65729,8.73125 -3.70417,-1.852083 -10.054169,-9.260416 -10.054169,-9.260416 z"
       id="path4391"
       inkscape:connector-curvature="0"
       sodipodi:nodetypes="ccccc" />
  </g>
</svg>
