<?xml version="1.0" encoding="UTF-8"?>
<!DOCTYPE svg PUBLIC "-//W3C//DTD SVG 1.1//EN" "http://www.w3.org/Graphics/SVG/1.1/DTD/svg11.dtd">
<svg xmlns="http://www.w3.org/2000/svg" version="1.1" width="512px" height="512px" style="shape-rendering:geometricPrecision; text-rendering:geometricPrecision; image-rendering:optimizeQuality; fill-rule:evenodd; clip-rule:evenodd" xmlns:xlink="http://www.w3.org/1999/xlink">
<g><path style="opacity:0.551" fill="#000002" d="M 244.5,26.5 C 263.107,40.4347 281.44,54.768 299.5,69.5C 283.923,84.9544 267.923,99.9544 251.5,114.5C 246.869,109.857 241.869,105.69 236.5,102C 223.5,93.6667 210.5,85.3333 197.5,77C 213.739,60.5979 229.406,43.7646 244.5,26.5 Z"/></g>
<g><path style="opacity:1" fill="#00001b" d="M 244.5,29.5 C 262.779,41.9984 280.446,55.4984 297.5,70C 282.316,84.0183 266.983,97.8516 251.5,111.5C 234.984,99.0796 217.984,87.4129 200.5,76.5C 215.188,60.813 229.855,45.1463 244.5,29.5 Z"/></g>
<g><path style="opacity:0.582" fill="#000003" d="M 301.5,117.5 C 303.308,117.491 304.975,117.991 306.5,119C 321.167,129.667 335.833,140.333 350.5,151C 351.451,151.718 351.617,152.551 351,153.5C 347.201,158.301 343.034,162.801 338.5,167C 318.597,182.897 297.597,197.23 275.5,210C 256.833,223 238.167,236 219.5,249C 211.263,256.567 203.763,264.733 197,273.5C 189.33,284.509 188.663,295.842 195,307.5C 197.349,310.017 199.849,312.35 202.5,314.5C 206.612,299.945 213.112,286.611 222,274.5C 232.914,260.252 245.747,248.085 260.5,238C 271.603,232.466 283.27,228.632 295.5,226.5C 306.803,229.637 316.803,235.137 325.5,243C 343.143,259.448 355.31,279.282 362,302.5C 363.945,310.838 363.945,319.172 362,327.5C 354.789,346.465 349.623,365.965 346.5,386C 346.79,397.244 351.123,406.577 359.5,414C 367.325,420.082 375.658,425.415 384.5,430C 406.629,440.4 428.962,450.233 451.5,459.5C 402.81,448.54 356.81,430.373 313.5,405C 305.418,399.589 297.918,393.422 291,386.5C 288.417,383.003 286.084,379.336 284,375.5C 282.637,371.239 282.304,366.905 283,362.5C 289.124,348.128 294.457,333.462 299,318.5C 301.692,309.349 303.192,300.015 303.5,290.5C 294.275,292.206 286.775,296.872 281,304.5C 264.069,326.976 257.069,352.309 260,380.5C 279.856,395.017 297.856,411.684 314,430.5C 330.135,449.445 345.302,469.111 359.5,489.5C 359,489.833 358.5,490.167 358,490.5C 338.664,477.329 319.664,463.662 301,449.5C 293.903,429.399 282.403,412.233 266.5,398C 247.627,382.052 226.627,369.386 203.5,360C 186.243,357.177 169.576,359.177 153.5,366C 143.246,373.525 141.079,383.025 147,394.5C 150.123,400.582 153.623,406.415 157.5,412C 167.342,416.845 177.009,416.511 186.5,411C 191.33,405.859 193.83,399.692 194,392.5C 213.563,402.03 232.729,412.197 251.5,423C 255.978,441.579 248.811,451.746 230,453.5C 223.716,452.977 217.549,451.81 211.5,450C 172.067,433.621 134.733,413.621 99.5,390C 88.3908,376.681 84.2241,361.515 87,344.5C 89.5837,337.618 94.4171,333.118 101.5,331C 117.049,326.692 132.716,326.359 148.5,330C 165.449,333.261 181.782,338.428 197.5,345.5C 199.13,337.498 200.297,329.498 201,321.5C 181.816,316.156 163.983,307.989 147.5,297C 127.057,279.677 125.224,260.51 142,239.5C 147.5,234 153,228.5 158.5,223C 173.121,212.048 187.454,200.714 201.5,189C 184.377,180.939 167.377,172.605 150.5,164C 145.053,159.854 139.886,155.354 135,150.5C 131.995,146.866 131.161,142.866 132.5,138.5C 133.723,137.386 135.056,137.219 136.5,138C 143.717,141.442 151.05,144.609 158.5,147.5C 167.697,131.068 181.697,123.901 200.5,126C 214.5,128.833 228.5,131.667 242.5,134.5C 263.487,133.007 283.154,127.341 301.5,117.5 Z"/></g>
<g><path style="opacity:1" fill="#00001b" d="M 204.5,189.5 C 215.808,181.519 226.808,173.186 237.5,164.5C 257.448,151.216 277.114,137.549 296.5,123.5C 298.903,121.459 301.57,120.292 304.5,120C 319.331,130.672 333.998,141.505 348.5,152.5C 346.062,156.442 343.062,159.942 339.5,163C 335.167,166.667 330.833,170.333 326.5,174C 291.327,197.419 256.327,221.086 221.5,245C 207.656,255.17 197.156,268.003 190,283.5C 186.291,297.379 190.291,308.379 202,316.5C 202.483,317.448 202.649,318.448 202.5,319.5C 183.826,314.994 166.492,307.494 150.5,297C 128.305,278.841 126.805,259.008 146,237.5C 150.865,232.3 156.032,227.467 161.5,223C 175.995,212 190.329,200.834 204.5,189.5 Z"/></g>
<g><path style="opacity:1" fill="#00001b" d="M 290.5,125.5 C 272.656,138.256 254.989,151.256 237.5,164.5C 225.935,171.733 214.935,179.733 204.5,188.5C 185.423,179.795 166.757,170.295 148.5,160C 144.033,156.535 139.867,152.702 136,148.5C 134.092,145.794 133.259,142.794 133.5,139.5C 142.024,142.675 150.524,146.008 159,149.5C 162.73,143.762 167.23,138.596 172.5,134C 181.611,127.887 191.611,125.887 202.5,128C 212.869,130.176 223.202,132.509 233.5,135C 242.536,135.717 251.536,135.384 260.5,134C 270.599,131.476 280.599,128.642 290.5,125.5 Z"/></g>
<g><path style="opacity:1" fill="#000008" d="M 296.5,123.5 C 277.114,137.549 257.448,151.216 237.5,164.5C 254.989,151.256 272.656,138.256 290.5,125.5C 292.28,123.583 294.28,122.916 296.5,123.5 Z"/></g>
<g><path style="opacity:0.99" fill="#000007" d="M 237.5,164.5 C 226.808,173.186 215.808,181.519 204.5,189.5C 204.5,189.167 204.5,188.833 204.5,188.5C 214.935,179.733 225.935,171.733 237.5,164.5 Z"/></g>
<g><path style="opacity:1" fill="#00001b" d="M 257.5,378.5 C 242.889,368.026 227.223,359.359 210.5,352.5C 207.6,350.465 204.434,348.799 201,347.5C 200.376,319.984 208.376,295.318 225,273.5C 233.136,264.363 241.636,255.53 250.5,247C 265.771,234.687 283.104,229.02 302.5,230C 332.871,246.709 352.371,271.875 361,305.5C 361.801,312.889 361.467,320.223 360,327.5C 354.403,343.222 349.736,359.222 346,375.5C 342.505,392.351 347.338,406.184 360.5,417C 383.074,431.621 407.074,443.621 432.5,453C 387.691,441.065 345.691,422.732 306.5,398C 300.698,393.2 295.198,388.033 290,382.5C 285.259,376.609 283.592,369.942 285,362.5C 294.444,341.673 300.944,320.006 304.5,297.5C 304.476,294.579 304.143,291.746 303.5,289C 298.295,288.926 293.628,290.593 289.5,294C 271.179,311.143 260.679,332.31 258,357.5C 257.5,364.492 257.334,371.492 257.5,378.5 Z"/></g>
<g><path style="opacity:1" fill="#00001b" d="M 210.5,352.5 C 226.958,360.56 242.624,369.893 257.5,380.5C 290.588,406.421 319.421,436.421 344,470.5C 347.378,475.422 350.878,480.255 354.5,485C 336.835,473.636 319.502,461.469 302.5,448.5C 294.553,426.437 281.553,407.937 263.5,393C 245.109,378.796 225.109,367.13 203.5,358C 190.055,356.892 176.722,357.559 163.5,360C 144.567,364.702 138.4,376.202 145,394.5C 147.935,400.427 151.268,406.094 155,411.5C 161.485,417.114 168.985,418.948 177.5,417C 188.395,413.938 194.395,406.771 195.5,395.5C 209.833,402.667 224.167,409.833 238.5,417C 243.1,419.215 247.266,422.048 251,425.5C 252.205,433.484 250.372,440.651 245.5,447C 236.663,451.748 227.329,452.748 217.5,450C 176.993,433.915 138.66,413.915 102.5,390C 90.0055,376.86 85.5055,361.36 89,343.5C 94.4672,335.013 102.301,330.513 112.5,330C 131.971,328.534 150.971,330.867 169.5,337C 183.418,341.631 197.085,346.798 210.5,352.5 Z"/></g>
<g><path style="opacity:1" fill="#000009" d="M 210.5,352.5 C 227.223,359.359 242.889,368.026 257.5,378.5C 257.5,379.167 257.5,379.833 257.5,380.5C 242.624,369.893 226.958,360.56 210.5,352.5 Z"/></g>
</svg>
